<svg xmlns="http://www.w3.org/2000/svg" xmlns:xlink="http://www.w3.org/1999/xlink" contentStyleType="text/css" data-diagram-type="CLASS" height="905px" preserveAspectRatio="none" style="width:1342px;height:905px;background:#FFFFFF;" version="1.1" viewBox="0 0 1342 905" width="1342px" zoomAndPan="magnify"><?plantuml 1.2026.6?><defs/><g><g class="title" data-source-line="1"><text fill="#000000" font-family="Sans-Serif" font-size="14" font-weight="700" lengthAdjust="spacing" textLength="270.1494" x="532.4253" y="22.9951">Presserl - Roles &amp; Responsibilities</text></g><!--cluster Keycloak (groups, newspaper-wide)--><g class="cluster" data-qualified-name="Keycloak .groups. newspaper-wide." data-source-line="8" id="ent0001"><path d="M8.5,85.8869 L292.8496,85.8869 A3.75,3.75 0 0 1 295.3496,88.3869 L302.3496,108.1838 L626.5,108.1838 A2.5,2.5 0 0 1 629,110.6838 L629,526.0969 A2.5,2.5 0 0 1 626.5,528.5969 L8.5,528.5969 A2.5,2.5 0 0 1 6,526.0969 L6,88.3869 A2.5,2.5 0 0 1 8.5,85.8869" fill="#F8F8F8" style="stroke:#000000;stroke-width:1.5;"/><line style="stroke:#000000;stroke-width:1.5;" x1="6" x2="302.3496" y1="108.1838" y2="108.1838"/><text fill="#000000" font-family="Sans-Serif" font-size="14" font-weight="700" lengthAdjust="spacing" textLength="283.3496" x="10" y="100.882">Keycloak (groups, newspaper-wide)</text></g><!--cluster Presserl DB (per section)--><g class="cluster" data-qualified-name="Presserl DB .per section." data-source-line="34" id="ent0005"><path d="M746.5,342.9669 L945.3594,342.9669 A3.75,3.75 0 0 1 947.8594,345.4669 L954.8594,365.2638 L1324.5,365.2638 A2.5,2.5 0 0 1 1327,367.7638 L1327,887.7669 A2.5,2.5 0 0 1 1324.5,890.2669 L746.5,890.2669 A2.5,2.5 0 0 1 744,887.7669 L744,345.4669 A2.5,2.5 0 0 1 746.5,342.9669" fill="#F8F8F8" style="stroke:#000000;stroke-width:1.5;"/><line style="stroke:#000000;stroke-width:1.5;" x1="744" x2="954.8594" y1="365.2638" y2="365.2638"/><text fill="#000000" font-family="Sans-Serif" font-size="14" font-weight="700" lengthAdjust="spacing" textLength="197.8594" x="748" y="357.962">Presserl DB (per section)</text></g><!--class Publisher--><g class="entity" data-qualified-name="Keycloak .groups. newspaper-wide..Publisher" data-source-line="9" id="ent0002"><rect fill="#F8CECC" height="140.0781" rx="2.5" ry="2.5" style="stroke:#181818;stroke-width:0.5;" width="292.0957" x="21.95" y="139.8869"/><text fill="#000000" font-family="Sans-Serif" font-size="14" lengthAdjust="spacing" textLength="64.5176" x="135.7391" y="157.882">Publisher</text><text fill="#000000" font-family="Sans-Serif" font-size="14" lengthAdjust="spacing" textLength="101.3223" x="117.3367" y="174.1789">(Herausgeber)</text><line style="stroke:#181818;stroke-width:0.5;" x1="22.95" x2="313.0457" y1="182.4806" y2="182.4806"/><text fill="#000000" font-family="Sans-Serif" font-size="14" lengthAdjust="spacing" textLength="201.9746" x="27.95" y="199.4757">parents / administrator (1..*)</text><line style="stroke:#181818;stroke-width:1;" x1="22.95" x2="313.0457" y1="206.7775" y2="206.7775"/><text fill="#000000" font-family="Sans-Serif" font-size="14" lengthAdjust="spacing" textLength="280.0957" x="27.95" y="223.7726">+create/lock accounts, reset passwords</text><text fill="#000000" font-family="Sans-Serif" font-size="14" lengthAdjust="spacing" textLength="124.1816" x="27.95" y="240.0695">+theme, backups</text><text fill="#000000" font-family="Sans-Serif" font-size="14" lengthAdjust="spacing" textLength="226.8711" x="27.95" y="256.3664">+emergency brake (lock offline)</text><text fill="#000000" font-family="Sans-Serif" font-size="14" lengthAdjust="spacing" textLength="145.5098" x="27.95" y="272.6632">+final approval level</text></g><!--class Chief--><g class="entity" data-qualified-name="Keycloak .groups. newspaper-wide..Chief" data-source-line="18" id="ent0003"><rect fill="#FFF2CC" height="140.0781" rx="2.5" ry="2.5" style="stroke:#181818;stroke-width:0.5;" width="295.6436" x="22.18" y="372.5169"/><text fill="#000000" font-family="Sans-Serif" font-size="14" lengthAdjust="spacing" textLength="98.3008" x="120.8514" y="390.512">Editor-in-chief</text><text fill="#000000" font-family="Sans-Serif" font-size="14" lengthAdjust="spacing" textLength="111.7881" x="114.1077" y="406.8089">(Chefredakteur)</text><line style="stroke:#181818;stroke-width:0.5;" x1="23.18" x2="316.8236" y1="415.1106" y2="415.1106"/><text fill="#000000" font-family="Sans-Serif" font-size="14" lengthAdjust="spacing" textLength="283.6436" x="28.18" y="432.1057">the child who owns the newspaper (1..*)</text><line style="stroke:#181818;stroke-width:1;" x1="23.18" x2="316.8236" y1="439.4075" y2="439.4075"/><text fill="#000000" font-family="Sans-Serif" font-size="14" lengthAdjust="spacing" textLength="125.9385" x="28.18" y="456.4026">+creates sections</text><text fill="#000000" font-family="Sans-Serif" font-size="14" lengthAdjust="spacing" textLength="243.9199" x="28.18" y="472.6995">+approves section editors' articles</text><text fill="#000000" font-family="Sans-Serif" font-size="14" lengthAdjust="spacing" textLength="161.2256" x="28.18" y="488.9964">+stands in for sections</text><text fill="#000000" font-family="Sans-Serif" font-size="14" lengthAdjust="spacing" textLength="166.1816" x="28.18" y="505.2932">without a section editor</text></g><!--class Reader--><g class="entity" data-qualified-name="Keycloak .groups. newspaper-wide..Reader" data-source-line="27" id="ent0004"><rect fill="#F1F1F1" height="91.1875" rx="2.5" ry="2.5" style="stroke:#181818;stroke-width:0.5;" width="264.8955" x="348.55" y="164.3269"/><text fill="#000000" font-family="Sans-Serif" font-size="14" lengthAdjust="spacing" textLength="50.1758" x="455.9099" y="182.322">Reader</text><text fill="#000000" font-family="Sans-Serif" font-size="14" lengthAdjust="spacing" textLength="49" x="456.4978" y="198.6189">(Leser)</text><line style="stroke:#181818;stroke-width:0.5;" x1="349.55" x2="612.4455" y1="206.9206" y2="206.9206"/><text fill="#000000" font-family="Sans-Serif" font-size="14" lengthAdjust="spacing" textLength="252.8955" x="354.55" y="223.9157">only needed for private newspapers</text><line style="stroke:#181818;stroke-width:1;" x1="349.55" x2="612.4455" y1="231.2175" y2="231.2175"/><text fill="#000000" font-family="Sans-Serif" font-size="14" lengthAdjust="spacing" textLength="171.7666" x="354.55" y="248.2126">+read published articles</text></g><!--class SectionEditor--><g class="entity" data-qualified-name="Presserl DB .per section..SectionEditor" data-source-line="35" id="ent0006"><rect fill="#DAE8FC" height="91.1875" rx="2.5" ry="2.5" style="stroke:#181818;stroke-width:0.5;" width="271.2256" x="1039.39" y="396.9669"/><text fill="#000000" font-family="Sans-Serif" font-size="14" lengthAdjust="spacing" textLength="97.665" x="1126.1703" y="414.962">Section editor</text><text fill="#000000" font-family="Sans-Serif" font-size="14" lengthAdjust="spacing" textLength="99.9141" x="1125.0458" y="431.2589">(Ressortleiter)</text><line style="stroke:#181818;stroke-width:0.5;" x1="1040.39" x2="1309.6156" y1="439.5606" y2="439.5606"/><text fill="#000000" font-family="Sans-Serif" font-size="14" lengthAdjust="spacing" textLength="130.5596" x="1045.39" y="456.5557">leads 1..n sections</text><line style="stroke:#181818;stroke-width:1;" x1="1040.39" x2="1309.6156" y1="463.8575" y2="463.8575"/><text fill="#000000" font-family="Sans-Serif" font-size="14" lengthAdjust="spacing" textLength="259.2256" x="1045.39" y="480.8526">+approves reporters of own sections</text></g><!--class Reporter--><g class="entity" data-qualified-name="Presserl DB .per section..Reporter" data-source-line="41" id="ent0007"><rect fill="#D5E8D4" height="123.7813" rx="2.5" ry="2.5" style="stroke:#181818;stroke-width:0.5;" width="216.2441" x="766.88" y="606.5969"/><text fill="#000000" font-family="Sans-Serif" font-size="14" lengthAdjust="spacing" textLength="61.4072" x="844.2985" y="624.592">Reporter</text><text fill="#000000" font-family="Sans-Serif" font-size="14" lengthAdjust="spacing" textLength="83.5693" x="833.2174" y="640.8889">(Redakteur)</text><line style="stroke:#181818;stroke-width:0.5;" x1="767.88" x2="982.1241" y1="649.1906" y2="649.1906"/><text fill="#000000" font-family="Sans-Serif" font-size="14" lengthAdjust="spacing" textLength="159.4893" x="772.88" y="666.1857">writes for 1..n sections</text><line style="stroke:#181818;stroke-width:1;" x1="767.88" x2="982.1241" y1="673.4875" y2="673.4875"/><text fill="#000000" font-family="Sans-Serif" font-size="14" lengthAdjust="spacing" textLength="204.2441" x="772.88" y="690.4826">+write drafts, upload images</text><text fill="#000000" font-family="Sans-Serif" font-size="14" lengthAdjust="spacing" textLength="59.8008" x="772.88" y="706.7795">+submit</text><text fill="#000000" font-family="Sans-Serif" font-size="14" lengthAdjust="spacing" textLength="179.6553" x="772.88" y="723.0764">+take own articles offline</text></g><!--class Section--><g class="entity" data-qualified-name="Presserl DB .per section..Section" data-source-line="49" id="ent0008"><rect fill="#F1F1F1" height="66.8906" rx="2.5" ry="2.5" style="stroke:#181818;stroke-width:0.5;" width="213.0791" x="764.46" y="807.3769"/><text fill="#000000" font-family="Sans-Serif" font-size="14" lengthAdjust="spacing" textLength="52.0146" x="844.9922" y="825.372">Section</text><line style="stroke:#181818;stroke-width:0.5;" x1="765.46" x2="976.5391" y1="833.6738" y2="833.6738"/><text fill="#000000" font-family="Sans-Serif" font-size="14" lengthAdjust="spacing" textLength="201.0791" x="770.46" y="850.6689">e.g. Sports, Animals, Puzzles</text><text fill="#000000" font-family="Sans-Serif" font-size="14" lengthAdjust="spacing" textLength="126.4785" x="770.46" y="866.9657">default: "General"</text></g><!--class Trust--><g class="entity" data-qualified-name="Presserl DB .per section..Trust" data-source-line="54" id="ent0009"><rect fill="#F1F1F1" height="66.8906" rx="2.5" ry="2.5" style="stroke:#181818;stroke-width:0.5;" width="243.8203" x="760.09" y="409.1069"/><text fill="#000000" font-family="Sans-Serif" font-size="14" lengthAdjust="spacing" textLength="35.9639" x="864.0182" y="427.102">Trust</text><line style="stroke:#181818;stroke-width:0.5;" x1="761.09" x2="1002.9103" y1="435.4038" y2="435.4038"/><text fill="#000000" font-family="Sans-Serif" font-size="14" lengthAdjust="spacing" textLength="231.8203" x="766.09" y="452.3989">approving level &#215; trusted person</text><text fill="#000000" font-family="Sans-Serif" font-size="14" lengthAdjust="spacing" textLength="76.8496" x="766.09" y="468.6957">default: off</text></g><!--class Newspaper--><g class="entity" data-qualified-name="Newspaper" data-source-line="60" id="ent0010"><rect fill="#F1F1F1" height="74.8906" rx="2.5" ry="2.5" style="stroke:#181818;stroke-width:0.5;" width="194.2734" x="377.86" y="631.0369"/><text fill="#000000" font-family="Sans-Serif" font-size="14" lengthAdjust="spacing" textLength="78.5518" x="435.7208" y="649.032">Newspaper</text><line style="stroke:#181818;stroke-width:0.5;" x1="378.86" x2="571.1334" y1="657.3338" y2="657.3338"/><text fill="#000000" font-family="Sans-Serif" font-size="14" lengthAdjust="spacing" textLength="172.0947" x="383.86" y="674.3289">visibility: public | private</text><line style="stroke:#181818;stroke-width:0.5;" x1="378.86" x2="571.1334" y1="681.6306" y2="681.6306"/><text fill="#000000" font-family="Sans-Serif" font-size="14" lengthAdjust="spacing" textLength="182.2734" x="383.86" y="698.6257">singleton (one per server)</text></g><g class="entity" data-qualified-name="GMN23" data-source-line="81" id="ent0024"><path d="M648.41,167.0869 L648.41,252.7509 L937.5858,252.7509 L937.5858,177.0869 L927.5858,167.0869 L648.41,167.0869" fill="#FEFFDD" style="stroke:#181818;stroke-width:0.5;"/><path d="M927.5858,167.0869 L927.5858,177.0869 L937.5858,177.0869 L927.5858,167.0869" fill="#FEFFDD" style="stroke:#181818;stroke-width:1;"/><text fill="#000000" font-family="Sans-Serif" font-size="13" lengthAdjust="spacing" textLength="141.3433" x="654.41" y="184.1538">Roles are cumulative.</text><text fill="#000000" font-family="Sans-Serif" font-size="13" lengthAdjust="spacing" textLength="268.1758" x="654.41" y="199.2866">Delegation: anyone may create accounts</text><text fill="#000000" font-family="Sans-Serif" font-size="13" lengthAdjust="spacing" textLength="248.606" x="654.41" y="214.4194">and assign roles at or below their own</text><text fill="#000000" font-family="Sans-Serif" font-size="13" lengthAdjust="spacing" textLength="190.3789" x="654.41" y="229.5522">level, within their own scope.</text><text fill="#000000" font-family="Sans-Serif" font-size="13" lengthAdjust="spacing" textLength="140.6006" x="654.41" y="244.685">No confirmation step.</text></g><!--link Publisher to Newspaper--><g class="link" data-entity-1="ent0002" data-entity-2="ent0010" data-link-type="association" data-source-line="65" id="lnk11"><path codeLine="65" d="M283.66,280.4369 C303.01,296.3269 321.24,314.6169 335,334.9669 C386.9,411.7269 350.06,452.0569 388,536.5969 C403.25,570.5769 426.97,605.5269 445.8,630.7669" fill="none" id="Publisher-Newspaper" style="stroke:#181818;stroke-width:1;"/><polygon fill="#000000" points="395.1001,447.1609,393.9681,437.7179,388.6339,440.1867,395.1001,447.1609" style="stroke:#000000;stroke-width:1;stroke-linejoin:miter;stroke-miterlimit:10;"/><text fill="#000000" font-family="Sans-Serif" font-size="13" lengthAdjust="spacing" textLength="76.3306" x="402" y="447.1238">administers</text><text fill="#000000" font-family="Sans-Serif" font-size="13" lengthAdjust="spacing" textLength="23.0356" x="270.5897" y="299.9455">1..*</text><text fill="#000000" font-family="Sans-Serif" font-size="13" lengthAdjust="spacing" textLength="8.271" x="432.1176" y="620.0738">1</text></g><!--link Chief to Newspaper--><g class="link" data-entity-1="ent0003" data-entity-2="ent0010" data-link-type="association" data-source-line="66" id="lnk12"><path codeLine="66" d="M238.59,512.9769 C261.58,534.5569 288.01,557.6469 314,576.5969 C341.23,596.4469 373.21,615.3069 401.46,630.6469" fill="none" id="Chief-Newspaper" style="stroke:#181818;stroke-width:1;"/><polygon fill="#000000" points="323.0529,563.5914,317.4422,555.9121,314,560.6766,323.0529,563.5914" style="stroke:#000000;stroke-width:1;stroke-linejoin:miter;stroke-miterlimit:10;"/><text fill="#000000" font-family="Sans-Serif" font-size="13" lengthAdjust="spacing" textLength="33.5981" x="328" y="565.1638">owns</text><text fill="#000000" font-family="Sans-Serif" font-size="13" lengthAdjust="spacing" textLength="23.0356" x="221.2114" y="532.7206">1..*</text><text fill="#000000" font-family="Sans-Serif" font-size="13" lengthAdjust="spacing" textLength="8.271" x="380.1567" y="619.9332">1</text></g><!--link Reader to Newspaper--><g class="link" data-entity-1="ent0004" data-entity-2="ent0010" data-link-type="association" data-source-line="67" id="lnk13"><path codeLine="67" d="M483.7,255.9769 C484.98,279.5069 486.37,308.7769 487,334.9669 C489.17,424.5469 491.1,447.0769 487,536.5969 C485.55,568.3969 482.11,604.4069 479.29,630.5969" fill="none" id="Reader-Newspaper" style="stroke:#181818;stroke-width:1;"/><polygon fill="#000000" points="494.3411,447.6229,497.3863,438.6131,491.5089,438.5439,494.3411,447.6229" style="stroke:#000000;stroke-width:1;stroke-linejoin:miter;stroke-miterlimit:10;"/><text fill="#000000" font-family="Sans-Serif" font-size="13" lengthAdjust="spacing" textLength="36.334" x="503.4" y="447.1238">reads</text><text fill="#000000" font-family="Sans-Serif" font-size="13" lengthAdjust="spacing" textLength="23.0356" x="459.4653" y="275.5845">0..*</text><text fill="#000000" font-family="Sans-Serif" font-size="13" lengthAdjust="spacing" textLength="8.271" x="471.3637" y="619.8746">1</text></g><!--reverse link Newspaper to Section--><g class="link" data-entity-1="ent0010" data-entity-2="ent0008" data-link-type="composition" data-source-line="68" id="lnk14"><path codeLine="68" d="M571.4632,710.9792 C641.0332,740.9092 727.36,778.0369 794.42,806.8869" fill="none" id="Newspaper-backto-Section" style="stroke:#181818;stroke-width:1;"/><polygon fill="#181818" points="560.44,706.2369,564.3708,712.2824,571.4632,710.9792,567.5324,704.9336,560.44,706.2369" style="stroke:#181818;stroke-width:1;stroke-linejoin:miter;stroke-miterlimit:10;"/><text fill="#000000" font-family="Sans-Serif" font-size="13" lengthAdjust="spacing" textLength="8.271" x="566.4614" y="726.0933">1</text><text fill="#000000" font-family="Sans-Serif" font-size="13" lengthAdjust="spacing" textLength="23.0356" x="755.1836" y="796.3264">1..*</text></g><!--link SectionEditor to Section--><g class="link" data-entity-1="ent0006" data-entity-2="ent0008" data-link-type="association" data-source-line="69" id="lnk15"><path codeLine="69" d="M1155.36,488.4869 C1122.94,558.2469 1052.22,693.3169 957,777.3769 C945.38,787.6369 932.13,797.8869 919.56,807.0269" fill="none" id="SectionEditor-Section" style="stroke:#181818;stroke-width:1;"/><polygon fill="#000000" points="1093.1551,672.572,1100.8989,667.0506,1096.1746,663.5535,1093.1551,672.572" style="stroke:#000000;stroke-width:1;stroke-linejoin:miter;stroke-miterlimit:10;"/><text fill="#000000" font-family="Sans-Serif" font-size="13" lengthAdjust="spacing" textLength="34.6011" x="1105.13" y="673.0538">leads</text><text fill="#000000" font-family="Sans-Serif" font-size="13" lengthAdjust="spacing" textLength="23.0356" x="1127.9831" y="508.0762">0..*</text><text fill="#000000" font-family="Sans-Serif" font-size="13" lengthAdjust="spacing" textLength="23.0356" x="903.628" y="796.2345">1..*</text></g><!--link Reporter to Section--><g class="link" data-entity-1="ent0007" data-entity-2="ent0008" data-link-type="association" data-source-line="70" id="lnk16"><path codeLine="70" d="M873.57,730.4969 C872.96,756.2769 872.28,785.2669 871.77,806.9169" fill="none" id="Reporter-Section" style="stroke:#181818;stroke-width:1;"/><polygon fill="#000000" points="877.6423,773.9419,880.7934,764.9685,874.9171,764.8301,877.6423,773.9419" style="stroke:#000000;stroke-width:1;stroke-linejoin:miter;stroke-miterlimit:10;"/><text fill="#000000" font-family="Sans-Serif" font-size="13" lengthAdjust="spacing" textLength="61.4644" x="886.76" y="773.4438">writes for</text><text fill="#000000" font-family="Sans-Serif" font-size="13" lengthAdjust="spacing" textLength="23.0356" x="849.0768" y="750.6085">0..*</text><text fill="#000000" font-family="Sans-Serif" font-size="13" lengthAdjust="spacing" textLength="23.0356" x="846.795" y="796.3619">1..*</text></g><!--link Chief to Section--><g class="link" data-entity-1="ent0003" data-entity-2="ent0008" data-link-type="dependency" data-source-line="71" id="lnk17"><path codeLine="71" d="M185.05,513.0969 C203.15,579.3869 240.22,676.8169 310,730.3769 C379.76,783.9269 616.8859,815.2788 759.2359,829.8188" fill="none" id="Chief-to-Section" style="stroke:#181818;stroke-width:1;stroke-dasharray:7,7;"/><polygon fill="#181818" points="764.21,830.3269,755.663,825.4331,759.2359,829.8188,754.8501,833.3916,764.21,830.3269" style="stroke:#181818;stroke-width:1;stroke-linejoin:miter;stroke-miterlimit:10;"/><text fill="#000000" font-family="Sans-Serif" font-size="13" lengthAdjust="spacing" textLength="48.3247" x="311" y="673.0538">creates</text></g><!--link Publisher to Chief--><g class="link" data-entity-1="ent0002" data-entity-2="ent0003" data-link-type="extension" data-source-line="73" id="lnk18"><path codeLine="73" d="M168.6,280.4369 C168.85,309.4769 168.995,325.1575 169.245,354.1875" fill="none" id="Publisher-to-Chief" style="stroke:#181818;stroke-width:1;"/><polygon fill="none" points="169.4,372.1869,175.2448,354.1359,163.2452,354.2392,169.4,372.1869" style="stroke:#181818;stroke-width:1;stroke-linejoin:miter;stroke-miterlimit:10;"/><text fill="#000000" font-family="Sans-Serif" font-size="13" lengthAdjust="spacing" textLength="53.8726" x="170" y="323.0338">includes</text></g><!--link Chief to SectionEditor--><g class="link" data-entity-1="ent0003" data-entity-2="ent0006" data-link-type="extension" data-source-line="74" id="lnk19"><path codeLine="74" d="M263.68,372.2069 C288.84,356.9869 316.89,343.0469 345,334.9669 C427.19,311.3269 988.07,324.5069 1021,334.9669 C1059.86,347.3069 1083.5807,361.8096 1111.9207,385.1296" fill="none" id="Chief-to-SectionEditor" style="stroke:#181818;stroke-width:1;"/><polygon fill="none" points="1125.82,396.5669,1115.7331,380.4966,1108.1083,389.7627,1125.82,396.5669" style="stroke:#181818;stroke-width:1;stroke-linejoin:miter;stroke-miterlimit:10;"/><text fill="#000000" font-family="Sans-Serif" font-size="13" lengthAdjust="spacing" textLength="53.8726" x="583.5" y="323.0338">includes</text></g><!--link SectionEditor to Reporter--><g class="link" data-entity-1="ent0006" data-entity-2="ent0007" data-link-type="extension" data-source-line="75" id="lnk20"><path codeLine="75" d="M1114.65,488.6069 C1069.39,522.3869 1021.3646,558.2298 971.5546,595.4098" fill="none" id="SectionEditor-to-Reporter" style="stroke:#181818;stroke-width:1;"/><polygon fill="none" points="957.13,606.1769,975.1437,600.218,967.9656,590.6016,957.13,606.1769" style="stroke:#181818;stroke-width:1;stroke-linejoin:miter;stroke-miterlimit:10;"/><text fill="#000000" font-family="Sans-Serif" font-size="13" lengthAdjust="spacing" textLength="53.8726" x="1035" y="565.1638">includes</text></g><!--link Reporter to Reader--><g class="link" data-entity-1="ent0007" data-entity-2="ent0004" data-link-type="extension" data-source-line="76" id="lnk21"><path codeLine="76" d="M766.4,612.2469 C736.78,592.2269 707.51,566.9269 688,536.5969 C632.58,450.4469 704.41,394.1169 646,309.9669 C630.76,288.0069 624.1989,279.629 601.3889,265.389" fill="none" id="Reporter-to-Reader" style="stroke:#181818;stroke-width:1;"/><polygon fill="none" points="586.12,255.8569,598.2115,270.4787,604.5662,260.2994,586.12,255.8569" style="stroke:#181818;stroke-width:1;stroke-linejoin:miter;stroke-miterlimit:10;"/><text fill="#000000" font-family="Sans-Serif" font-size="13" lengthAdjust="spacing" textLength="53.8726" x="689" y="447.1238">includes</text></g><!--link Trust to Reporter--><g class="link" data-entity-1="ent0009" data-entity-2="ent0007" data-link-type="dependency" data-source-line="78" id="lnk22"><path codeLine="78" d="M880.98,476.1169 C879.92,510.0769 878.3858,559.1293 877.0758,601.1393" fill="none" id="Trust-to-Reporter" style="stroke:#181818;stroke-width:1;stroke-dasharray:7,7;"/><polygon fill="#181818" points="876.92,606.1369,881.1986,597.2659,877.0758,601.1393,873.2025,597.0166,876.92,606.1369" style="stroke:#181818;stroke-width:1;stroke-linejoin:miter;stroke-miterlimit:10;"/><text fill="#000000" font-family="Sans-Serif" font-size="13" lengthAdjust="spacing" textLength="96.3066" x="879.71" y="557.6638">skips one level</text><text fill="#000000" font-family="Sans-Serif" font-size="13" lengthAdjust="spacing" textLength="94.8911" x="880.4178" y="572.7966">for one person</text></g><!--link Publisher to GMN23--><g class="link" data-entity-1="ent0002" data-entity-2="ent0024" data-link-type="association" data-source-line="81" id="lnk25"><path d="M232.1,139.4169 C263.84,109.7169 304.71,78.4669 348.5,62.8869 C403.56,43.2969 556.41,43.3669 611.5,62.8869 C669.41,83.3969 722.35,131.1269 755.91,166.6769" fill="none" id="Publisher-GMN23" style="stroke:#181818;stroke-width:1;stroke-dasharray:7,7;"/></g><?plantuml-src VLN1Rjiu4BthAmOgq7NQoEqMMo38mK3MYNSNNGH1lCTUQ6aa4QP8WKFPSBRvZlsW_R4EAKgMWZR88VBmyV7DyCtGIQSG7YmIeLMGmQDHIF0M7f5Qeqdkf99E8YMqbxeLLZH0jIZCKUeAIg489oi5bg9JRcEqknSDmbPeohPePJa1vKeGtJXdvQvp-5Tkz5O-8NnCQbaWODEw4pJOxD1I7ygbpHKcIIlolQWGqYzuofKHUrXKrdGjNOB68xMYHPiTUST52cysL_uF_asWFn3IXswd9DLel-h5dsX5HnNo8GmM1EEYtxc-Mw_3JW2MZDeHV01HD59BSbOuOs7nwtBvxY90iYpyUm-vHU7mWpBv7aIUcuutNWAN5Xtp41sDBIXYNOqDNiAEK-84Of13jaATds1dnHvX4QXCMIgfyIA2Igc50j6srXpuG-415Iyz9-TCxmh96ZEfixoMM7A-wnfBYuNOE-nYnck_nDbkDf_6R5aLy1PLmB4sO8wQGcYixYjf4n3cJh9bOhXNU8u31bNq2mZh95_e02GdT44WDPHSs1aBm56wsdGEn0kQ5na_eYZ2nVxDrOu9zh6OcT7gn7bWWKKufhNomAhFgT4yASwfW3QQefXAVawU9rOSE-VsTrZu2aMPFxRWTfO3o-Kk8sEv1QKRP4TCVuVmvlRcxcept8zYLGHy1tfUfr7sM7IBBVDoMcmVVv5J_BnmFIvecVbZM649d--kRd-B4evM-ilsDNn5Hq11OKNfMw1hkLiBa0sNRBprRjT8DtI3TxjNETHvCFqBjR4sqpf5MRYibh3rYlcy6yr7AVvuw9wU1gF5sNGDwH-ekVrL-eBy7zkH2zJXAnBt5VN3BdGQ_FyVEB_Cfl2kCNfEphe7ZqJQ-y5XWNhy5UY9UHKwpc9XD4Bl7tjWA_3YGSRfUxhkdPZ3jy6tdlyyibBVbIbNdx_IoH7Nuz3oHbWbVSl_71qQVfN4naa__WndWmrNoJdc4Uy2Cko9TvFClJmbdCAOKKN6qNIlO2SE759QBbSJG1n8qmfb_63fxDigJhrhdZQvwWe6zO5nVQvuWfilZFXHy0GwnYQeKD499kazveLFAFYHRDdxR8LWjg_Q9ncTuQsMQCDjPMLLEz_NOtxiblxTvjSAygxfb73oW4kEtwB2IdZfx0PzycIDECKQZSyK0ta8iq59LXfipyLdMDYXCaV_2aZh_P50B-qoJ6QUsUCAK6xQSEIz0NxKIscRS2uFU6oN2JA_b_yT?></g></svg>